<?xml version="1.0" encoding="utf-8"?>
<!-- Generator: Adobe Illustrator 16.0.4, SVG Export Plug-In . SVG Version: 6.00 Build 0)  -->
<!DOCTYPE svg PUBLIC "-//W3C//DTD SVG 1.1//EN" "http://www.w3.org/Graphics/SVG/1.1/DTD/svg11.dtd">
<svg version="1.1" xmlns="http://www.w3.org/2000/svg" xmlns:xlink="http://www.w3.org/1999/xlink" x="0px" y="0px"
	 width="188.804px" height="36.687px" viewBox="0 0 188.804 36.687" enable-background="new 0 0 188.804 36.687"
	 xml:space="preserve">
<g id="Layer_2">
</g>
<g id="Layer_1">
	<g>
		<g>
			<path fill="#FFFFFF" d="M45.148,7.584h4.132l9.539,12.542V7.584h4.423V27.95H59.43L49.57,15.002V27.95h-4.422V7.584z"/>
			<path fill="#FFFFFF" d="M73.306,19.92L65.48,7.584h5.236l4.858,8.176l4.946-8.176h5.091l-7.827,12.251v8.115h-4.479V19.92z"/>
			<path fill="#FFFFFF" d="M87.529,19.223V7.584h4.479v11.522c0,3.317,1.657,5.035,4.394,5.035c2.733,0,4.392-1.66,4.392-4.887
				V7.584h4.481v11.494c0,6.166-3.463,9.192-8.933,9.192S87.529,25.217,87.529,19.223z"/>
		</g>
		<g>
			<path fill="#FFFFFF" d="M35.85,35.854H0V0h35.85V35.854L35.85,35.854z M16.685,31.662c0.042,0.252,0.586,0.373,0.708,0
				l1.252-9.934h-3.045L16.685,31.662L16.685,31.662z M19.709,21.01v-1.504h-5.174v1.504H19.709L19.709,21.01z M18.218,18.771
				c6.559,0.236,7.023-5.743,7.049-7.979c0.003-0.129-0.06-0.143-0.093-0.052c-0.192,0.467-1.048,2.135-3.413,3.149
				c-2.111,0.905-3.382,2.962-3.603,4.809C18.148,18.746,18.187,18.769,18.218,18.771z M17.497,18.338
				c1.038-4.978,5.089-5.1,5.452-6.043c0.565-1.473-0.47-4.088-0.734-4.396c-0.026-0.034-0.062-0.013-0.072,0.016
				c-0.553,1.206-1.442,2.353-2.093,2.882c-0.918,0.739-4.438,3.348-2.638,7.545C17.435,18.392,17.484,18.379,17.497,18.338z
				 M16.781,18.537c-2.197-4.694,2.194-7.724,2.913-8.383c0.101-0.09,0.075-0.176,0.075-0.282c0.002-1.476-0.843-3.867-1.121-4.21
				c-0.039-0.052-0.072-0.031-0.088,0.023c-0.376,1.458-2.378,3.629-2.778,4.104c-3.393,4.033-2.617,6.489,0.926,8.806
				C16.752,18.624,16.807,18.59,16.781,18.537z M15.798,18.699c-3.675-2.192-3.307-5.323-1.785-7.626
				c0.034-0.047,0.044-0.127,0.034-0.22c-0.065-0.547-0.661-1.933-0.91-2.309c-0.065-0.096-0.12-0.088-0.125-0.021
				c-0.021,0.625-0.734,2.194-1.824,4.002c-1.159,1.924-1.162,6.098,4.594,6.262C15.837,18.787,15.853,18.732,15.798,18.699z"/>
		</g>
	</g>
	<line fill="none" x1="115.8" y1="2.478" x2="115.8" y2="36.687"/>
	<line stroke="#FFFFFF" stroke-miterlimit="10" x1="116.197" y1="35.833" x2="116.197" y2="1.993"/>
	<g>
		<path fill="#FFFFFF" d="M127.209,7.525h14.301v1.392h-12.792v8.325h11.486v1.392h-11.486v9.195h-1.509V7.525z"/>
		<path fill="#FFFFFF" d="M146.233,7.525h6.759c6.382,0,10.791,4.38,10.791,10.094v0.058c0,5.714-4.409,10.152-10.791,10.152h-6.759
			V7.525z M147.742,8.917v17.52h5.25c5.656,0,9.225-3.858,9.225-8.702v-0.058c0-4.815-3.568-8.76-9.225-8.76H147.742z"/>
		<path fill="#FFFFFF" d="M176.626,7.38h1.451l9.457,20.45h-1.654l-2.582-5.686h-11.98l-2.58,5.686h-1.566L176.626,7.38z
			 M182.659,20.781l-5.336-11.748l-5.367,11.748H182.659z"/>
	</g>
	<g>
	</g>
	<g>
	</g>
	<g>
	</g>
	<g>
	</g>
	<g>
	</g>
	<g>
	</g>
</g>
</svg>
